<svg xmlns="http://www.w3.org/2000/svg" width="960" height="624" viewBox="0 0 960 624">
  <defs>
    <pattern id="floor" width="48" height="48" patternUnits="userSpaceOnUse">
      <rect width="48" height="48" fill="#d7c39f"/>
      <path d="M24 0h24v24H24zM0 24h24v24H0z" fill="#c8ad82"/>
      <path d="M1 1h22M25 25h22" stroke="#fff" stroke-opacity=".1" stroke-width="2"/>
    </pattern>
  </defs>
  <rect width="960" height="624" fill="#263b37"/>
  <rect x="40" y="30" width="880" height="560" fill="url(#floor)"/>
  <rect x="40" y="30" width="880" height="30" fill="#6d4b38"/><rect x="40" y="560" width="880" height="30" fill="#6d4b38"/>
  <rect x="40" y="30" width="30" height="560" fill="#6d4b38"/><rect x="890" y="30" width="30" height="560" fill="#6d4b38"/>
  <rect x="49" y="39" width="862" height="542" fill="none" stroke="#8ab8d1" stroke-width="3"/>
  <g transform="translate(158 192)"><rect x="-40" y="-58" width="80" height="116" fill="#5a3d2d"/><rect x="-34" y="-52" width="68" height="104" fill="#5d93bc"/><rect x="-29" y="-48" width="58" height="28" fill="#f3ead2"/><rect x="-29" y="-14" width="58" height="6" fill="#ffffff" fill-opacity=".25"/></g>
  <g transform="translate(376 150)"><rect x="-52" y="-31" width="104" height="62" fill="#604331"/><rect x="-46" y="-25" width="92" height="50" fill="#a97c50"/><rect x="-36" y="-17" width="72" height="34" fill="#b9e0e3"/><path d="M0-25v50M-46 0h92" stroke="#5b4533" stroke-width="5"/><path d="M-29-13h27" stroke="#fff" stroke-opacity=".55" stroke-width="5"/></g>
  <g transform="translate(592 154)"><rect x="-49" y="-31" width="98" height="64" fill="#6a4935"/><rect x="-42" y="-25" width="84" height="52" fill="#d9b56e"/><rect x="-33" y="-16" width="66" height="20" fill="#f1e5bf"/><rect x="-27" y="10" width="54" height="12" fill="#c75d55"/></g>
  <g transform="translate(810 166)"><rect x="-48" y="-58" width="96" height="116" fill="#4c3122"/><rect x="-41" y="-51" width="82" height="102" fill="#856145"/><path d="M-41-20h82M-41 12h82M-41 43h82" stroke="#4c3122" stroke-width="6"/><g fill="#c9544f"><rect x="-33" y="-44" width="8" height="22"/><rect x="-11" y="-13" width="8" height="22"/><rect x="20" y="18" width="8" height="22"/></g><g fill="#4d86a6"><rect x="-20" y="-44" width="8" height="22"/><rect x="9" y="-13" width="8" height="22"/><rect x="-24" y="18" width="8" height="22"/></g><g fill="#e2b34e"><rect x="2" y="-44" width="8" height="22"/><rect x="-33" y="-13" width="8" height="22"/><rect x="-2" y="18" width="8" height="22"/></g></g>
  <g transform="translate(720 396)"><rect x="-43" y="17" width="86" height="12" fill="#5b3825"/><rect x="-50" y="-24" width="100" height="45" fill="#9d7048"/><rect x="-43" y="-18" width="86" height="7" fill="#fff" fill-opacity=".2"/><rect x="-34" y="-68" width="68" height="56" fill="#343b43"/><rect x="-26" y="-60" width="52" height="37" fill="#82d9dc"/><path d="M-8-12v20M-22 10h44" stroke="#4b4b47" stroke-width="5"/></g>
  <g transform="translate(380 412)"><rect x="-76" y="-43" width="152" height="86" fill="#803f4c" fill-opacity=".2"/><rect x="-70" y="-38" width="140" height="76" fill="#b85e5b"/><rect x="-59" y="-28" width="118" height="56" fill="none" stroke="#ffe6b6" stroke-opacity=".5" stroke-width="4"/></g>
  <g transform="translate(158 432)"><rect x="-14" y="5" width="28" height="25" fill="#b06f45"/><rect x="-10" y="24" width="20" height="7" fill="#754329"/><path d="M0 7V-34M0-16l-24-11M0-7l28-13M0-24l-20-17" stroke="#4e9a55" stroke-width="14" stroke-linecap="square"/></g>
  <ellipse cx="480" cy="536" rx="44" ry="16" fill="#f4dc77" fill-opacity=".32"/><ellipse cx="480" cy="536" rx="22" ry="8" fill="#f4dc77" fill-opacity=".5"/>
  <g fill="#fdfae5" stroke="#294e3c" stroke-opacity=".25"><rect x="348" y="67" width="264" height="22"/><rect x="448" y="552" width="64" height="20"/></g><g fill="#294e3c" font-family="Trebuchet MS, sans-serif" font-weight="900" text-anchor="middle"><text x="480" y="82" font-size="11">HABITACIÓN DEL ENTRENADOR</text><text x="480" y="566" font-size="10">SALIDA</text></g>
</svg>
