<svg xmlns="http://www.w3.org/2000/svg" width="640" height="640" viewBox="0 0 640 640">
  <defs>
    <pattern id="grass" width="32" height="32" patternUnits="userSpaceOnUse">
      <rect width="32" height="32" fill="#6ea95b"/>
      <path d="M5 25l3-7 2 7m15-14l2-6 3 7M17 30l2-5 2 5" stroke="#4d8c49" stroke-width="2" fill="none" opacity=".65"/>
    </pattern>
    <pattern id="path" width="32" height="32" patternUnits="userSpaceOnUse">
      <rect width="32" height="32" fill="#d4b06b"/>
      <circle cx="7" cy="9" r="1.5" fill="#ae884f"/><circle cx="24" cy="22" r="1" fill="#ae884f"/>
    </pattern>
  </defs>
  <rect width="640" height="640" fill="#244c39"/>
  <rect x="32" y="32" width="576" height="576" rx="18" fill="url(#grass)" stroke="#173b2d" stroke-width="10"/>
  <rect x="288" y="32" width="64" height="576" fill="url(#path)"/>
  <rect x="32" y="320" width="576" height="64" fill="url(#path)"/>
  <rect x="64" y="128" width="192" height="160" rx="10" fill="#4f984d" stroke="#38753d" stroke-width="6"/>
  <g fill="#2f6c3d" stroke="#1f5033" stroke-width="4">
    <circle cx="304" cy="208" r="39"/><circle cx="368" cy="208" r="39"/>
    <circle cx="480" cy="128" r="42"/><circle cx="544" cy="160" r="36"/>
    <circle cx="128" cy="448" r="40"/><circle cx="544" cy="480" r="44"/>
  </g>
  <g fill="#f2a33a" opacity=".95">
    <circle cx="291" cy="196" r="7"/><circle cx="319" cy="215" r="6"/><circle cx="355" cy="192" r="7"/><circle cx="382" cy="219" r="6"/>
    <circle cx="470" cy="116" r="7"/><circle cx="493" cy="139" r="6"/><circle cx="533" cy="149" r="7"/>
  </g>
  <rect x="256" y="192" width="128" height="96" rx="8" fill="#865d3f" stroke="#4d392c" stroke-width="6"/>
  <path d="M256 208l64-46 64 46" fill="#c96d48" stroke="#713f34" stroke-width="8"/>
  <rect x="306" y="240" width="28" height="48" fill="#3c3027"/>
  <rect x="304" y="574" width="32" height="34" fill="#f2ca73" stroke="#7c5733" stroke-width="4"/>
  <text x="320" y="618" text-anchor="middle" font-family="sans-serif" font-size="15" font-weight="700" fill="#f8f3d8">SAN PABLO</text>
</svg>
